<svg width="16" height="16" viewBox="0 0 16 16" fill="none" xmlns="http://www.w3.org/2000/svg">
<path d="M5.83518 10.74L4.71518 9.62002C4.56433 9.47104 4.37347 9.36906 4.16578 9.32646C3.95809 9.28385 3.7425 9.30246 3.54518 9.38002L2.18018 9.92502C1.98077 10.006 1.80979 10.1441 1.68878 10.3221C1.56777 10.5 1.50215 10.7098 1.50018 10.925V13.425C1.50134 13.5714 1.53211 13.7161 1.59064 13.8502C1.64918 13.9844 1.73426 14.1054 1.84077 14.2058C1.94728 14.3062 2.07301 14.3841 2.21039 14.4346C2.34778 14.4852 2.49397 14.5074 2.64018 14.5C12.2052 13.905 14.1352 5.80502 14.5002 2.70502C14.5171 2.55279 14.5016 2.39869 14.4548 2.25288C14.4079 2.10706 14.3306 1.97282 14.2281 1.85899C14.1257 1.74516 14.0002 1.65432 13.8601 1.59245C13.72 1.53058 13.5683 1.49908 13.4152 1.50002H11.0002C10.7847 1.50066 10.5743 1.56575 10.3961 1.68694C10.2179 1.80812 10.08 1.97984 10.0002 2.18002L9.45518 3.54502C9.37505 3.74155 9.35461 3.95734 9.3964 4.16543C9.4382 4.37351 9.54038 4.56467 9.69018 4.71502L10.8102 5.83502C10.8102 5.83502 10.1652 10.2 5.83518 10.74Z" fill="white"/>
</svg>
