<svg width="16" height="16" viewBox="0 0 16 16" fill="none" xmlns="http://www.w3.org/2000/svg">
<g clip-path="url(#clip0_467_2600)">
<path d="M3.87471 6.89839C3.94242 6.89839 4.01794 6.90881 4.10127 6.92964C4.18461 6.95048 4.26794 6.97912 4.35127 7.01558C4.43461 7.05204 4.51794 7.08589 4.60127 7.11714C4.68461 7.14839 4.76013 7.17964 4.82784 7.21089L4.70284 7.22652C4.66117 7.23173 4.6169 7.23433 4.57002 7.23433C4.48148 7.23433 4.40075 7.22131 4.32784 7.19527C4.25492 7.16923 4.18721 7.13537 4.12471 7.09371C4.06221 7.05204 3.99971 7.02079 3.93721 6.99996C3.87471 6.97912 3.81742 6.9635 3.76534 6.95308C3.71325 6.95308 3.66638 6.9635 3.62471 6.98433C3.58305 7.00516 3.54138 7.0286 3.49971 7.05464C3.49971 7.03381 3.48148 7.02339 3.44502 7.02339C3.48148 6.98694 3.54919 6.95829 3.64815 6.93746C3.74711 6.91662 3.82263 6.9036 3.87471 6.89839ZM4.9294 7.24996C5.14294 7.24996 5.33825 7.28641 5.51534 7.35933C5.44242 7.38537 5.3695 7.40621 5.29659 7.42183C5.22367 7.43746 5.14815 7.44787 5.07002 7.45308C4.96586 7.45308 4.87211 7.44266 4.78877 7.42183C4.81482 7.38016 4.84086 7.35412 4.8669 7.34371C4.89294 7.33329 4.91377 7.30204 4.9294 7.24996ZM7.99971 -4.38201e-05C8.73409 -4.38201e-05 9.43982 0.0963104 10.1169 0.289019C10.794 0.481727 11.4294 0.749956 12.0231 1.09371C12.6169 1.43746 13.1586 1.85673 13.6481 2.35152C14.1377 2.84631 14.5544 3.38537 14.8981 3.96871C15.2419 4.55204 15.5127 5.18746 15.7106 5.87496C15.9086 6.56246 16.0049 7.27079 15.9997 7.99996C15.9997 8.73433 15.9034 9.44006 15.7106 10.1171C15.5179 10.7942 15.2497 11.4296 14.906 12.0234C14.5622 12.6171 14.1429 13.1588 13.6481 13.6484C13.1534 14.138 12.6143 14.5546 12.031 14.8984C11.4476 15.2421 10.8122 15.513 10.1247 15.7109C9.43721 15.9088 8.72888 16.0052 7.99971 16C7.26534 16 6.55961 15.9036 5.88252 15.7109C5.20544 15.5182 4.57002 15.25 3.97627 14.9062C3.38252 14.5625 2.84086 14.1432 2.35127 13.6484C1.86169 13.1536 1.44502 12.6145 1.10127 12.0312C0.757524 11.4479 0.486691 10.8125 0.288775 10.125C0.0908579 9.43746 -0.00549629 8.72912 -0.000287961 7.99996C-0.000287961 7.26558 0.0960662 6.55985 0.288775 5.88277C0.481483 5.20569 0.749712 4.57027 1.09346 3.97652C1.43721 3.38277 1.85648 2.8411 2.35127 2.35152C2.84607 1.86194 3.38513 1.44527 3.96846 1.10152C4.5518 0.757769 5.18721 0.486935 5.87471 0.289019C6.56221 0.091102 7.27055 -0.00525215 7.99971 -4.38201e-05ZM13.9528 4.33589C13.8799 4.22131 13.807 4.11194 13.7341 4.00777C13.6612 3.9036 13.5856 3.79683 13.5075 3.68746C13.4971 3.73433 13.4841 3.76819 13.4685 3.78902C13.4528 3.80985 13.4424 3.85673 13.4372 3.92964C13.4372 3.97652 13.4554 4.02079 13.4919 4.06246C13.5284 4.10412 13.5752 4.14579 13.6325 4.18746C13.6898 4.22912 13.7471 4.26037 13.8044 4.28121C13.8617 4.30204 13.9112 4.32027 13.9528 4.33589ZM13.4138 3.57027C13.4138 3.61194 13.406 3.64058 13.3903 3.65621H13.4372C13.458 3.65621 13.4737 3.65881 13.4841 3.66402L13.4138 3.57027ZM7.99971 15C8.59346 15 9.17419 14.9244 9.7419 14.7734C10.3096 14.6224 10.8461 14.4088 11.3513 14.1328C11.8565 13.8567 12.3252 13.5182 12.7575 13.1171C13.1898 12.7161 13.5674 12.2682 13.8903 11.7734C13.8226 11.6171 13.7575 11.4583 13.695 11.2968C13.6325 11.1354 13.6013 10.9687 13.6013 10.7968C13.6013 10.6093 13.6091 10.4583 13.6247 10.3437C13.6403 10.2291 13.6586 10.1276 13.6794 10.039C13.7002 9.95048 13.7106 9.87496 13.7106 9.81246C13.7106 9.74996 13.7028 9.66923 13.6872 9.57027C13.6716 9.47131 13.6273 9.36454 13.5544 9.24996C13.4815 9.13537 13.3851 8.97391 13.2653 8.76558C13.2705 8.72912 13.2784 8.67964 13.2888 8.61714C13.2992 8.55464 13.3096 8.48954 13.32 8.42183C13.3304 8.35412 13.333 8.29162 13.3278 8.23433C13.3226 8.17704 13.3096 8.12756 13.2888 8.08589C13.1534 8.07027 13.0127 8.04162 12.8669 7.99996C12.7211 7.95829 12.5909 7.89579 12.4763 7.81246L12.5231 7.77339C12.4554 7.78902 12.3877 7.80985 12.32 7.83589C12.2523 7.86194 12.1872 7.89058 12.1247 7.92183C12.0622 7.95308 11.9945 7.97391 11.9216 7.98433C11.8487 7.99475 11.7784 8.00516 11.7106 8.01558L11.5856 7.99996L11.6091 7.94527C11.5362 7.9661 11.458 7.99214 11.3747 8.02339C11.2914 8.05464 11.2106 8.07027 11.1325 8.07027C11.0804 8.07027 11.0049 8.05204 10.906 8.01558C10.807 7.97912 10.708 7.93485 10.6091 7.88277C10.5101 7.83069 10.4216 7.77339 10.3435 7.71089C10.2653 7.64839 10.2263 7.5885 10.2263 7.53121L10.2419 7.50777C10.2159 7.47652 10.182 7.44787 10.1403 7.42183C10.0987 7.39579 10.0596 7.36975 10.0231 7.34371C9.98669 7.31766 9.95284 7.28902 9.92159 7.25777C9.89034 7.22652 9.87732 7.19006 9.88252 7.14839L9.96846 7.07808L9.78877 7.05464L9.72627 6.82027C9.73669 6.84631 9.76013 6.85673 9.79659 6.85152C9.83305 6.84631 9.86169 6.83589 9.88252 6.82027L9.60127 6.67183L9.79659 6.17183C9.72367 5.901 9.70544 5.69266 9.7419 5.54683C9.77836 5.401 9.84867 5.28121 9.95284 5.18746C10.057 5.09371 10.1716 4.99996 10.2966 4.90621C10.4216 4.81246 10.5492 4.68485 10.6794 4.52339L10.656 4.42964L11.1716 3.80464L11.2888 3.78902C11.4346 3.78902 11.5987 3.78381 11.781 3.77339C11.9633 3.76298 12.1481 3.74475 12.3356 3.71871C12.5231 3.69266 12.708 3.66662 12.8903 3.64058C13.0726 3.61454 13.2393 3.58069 13.3903 3.53902C13.2237 3.3411 13.0492 3.1536 12.8669 2.97652C12.6846 2.79944 12.4893 2.63016 12.281 2.46871C12.2237 2.48954 12.1534 2.51819 12.07 2.55464C11.9867 2.5911 11.9034 2.63798 11.82 2.69527C11.7367 2.75256 11.6716 2.81506 11.6247 2.88277C11.5778 2.95048 11.5492 3.02079 11.5388 3.09371L11.5856 3.24214C11.4919 3.39319 11.3877 3.48694 11.2731 3.52339C11.1586 3.55985 11.0414 3.58069 10.9216 3.58589C10.8018 3.5911 10.6768 3.5911 10.5466 3.58589C10.4164 3.58069 10.2914 3.60412 10.1716 3.65621L10.0466 3.39058L10.1638 2.93746L10.031 2.74214L11.3825 2.32027C11.3252 2.17444 11.2315 2.06506 11.1013 1.99214C10.9711 1.91923 10.8278 1.88277 10.6716 1.88277V1.80464L11.1091 1.73433C10.6247 1.49475 10.1221 1.31246 9.60127 1.18746C9.08044 1.06246 8.54659 0.999956 7.99971 0.999956C7.54659 0.999956 7.09867 1.04423 6.65596 1.13277C6.21325 1.22131 5.78617 1.34891 5.37471 1.51558C4.96325 1.68225 4.56482 1.89058 4.1794 2.14058C3.79398 2.39058 3.44242 2.67183 3.12471 2.98433C3.26013 2.98433 3.3643 3.01819 3.43721 3.08589C3.51013 3.1536 3.57784 3.22912 3.64034 3.31246C3.70284 3.39579 3.76794 3.47131 3.83565 3.53902C3.90336 3.60673 3.9945 3.64319 4.10909 3.64839L4.23409 3.55464L4.21846 3.38277L4.47627 3.01558L4.27315 2.43746C4.29919 2.42183 4.33825 2.39579 4.39034 2.35933C4.44242 2.32287 4.48669 2.30464 4.52315 2.30464C4.6794 2.30464 4.79919 2.31246 4.88252 2.32808C4.96586 2.34371 5.03877 2.37235 5.10127 2.41402C5.16377 2.45569 5.21846 2.51558 5.26534 2.59371C5.31221 2.67183 5.38513 2.77079 5.48409 2.89058L5.76534 2.67183C5.81742 2.69266 5.90075 2.72652 6.01534 2.77339C6.12992 2.82027 6.24711 2.87756 6.3669 2.94527C6.48669 3.01298 6.58825 3.08329 6.67159 3.15621C6.75492 3.22912 6.79919 3.29683 6.8044 3.35933C6.8044 3.43746 6.77575 3.49996 6.71846 3.54683C6.66117 3.59371 6.58565 3.63277 6.4919 3.66402C6.39815 3.69527 6.3018 3.71871 6.20284 3.73433C6.10388 3.74996 6.00492 3.77079 5.90596 3.79683C5.807 3.82287 5.73148 3.84891 5.6794 3.87496C5.62732 3.901 5.59607 3.94527 5.58565 4.00777L6.03877 4.15621C5.93461 4.24475 5.82263 4.32548 5.70284 4.39839C5.58305 4.47131 5.45805 4.53902 5.32784 4.60152L5.35909 4.73433L4.64034 5.01558V5.23433L4.58565 5.25777L4.62471 4.98433L4.59346 4.97652C4.557 4.97652 4.53617 4.98433 4.53096 4.99996C4.52575 5.01558 4.52315 5.03381 4.52315 5.05464C4.52315 5.07548 4.52836 5.09631 4.53877 5.11714C4.54919 5.13798 4.5518 5.1536 4.54659 5.16402L4.44502 5.10933L4.46065 5.14058C4.46065 5.15621 4.46846 5.17964 4.48409 5.21089C4.49971 5.24214 4.52055 5.27079 4.54659 5.29683C4.57263 5.32287 4.59346 5.34891 4.60909 5.37496C4.62471 5.401 4.63513 5.41402 4.64034 5.41402C4.64034 5.42964 4.62992 5.44527 4.60909 5.46089C4.58825 5.47652 4.56221 5.48694 4.53096 5.49214C4.49971 5.49735 4.47888 5.50516 4.46846 5.51558C4.45805 5.526 4.45805 5.5286 4.46846 5.52339C4.54138 5.52339 4.557 5.5286 4.51534 5.53902C4.47367 5.54944 4.40857 5.57548 4.32002 5.61714C4.23148 5.65881 4.15075 5.71871 4.07784 5.79683C4.00492 5.87496 3.96325 5.98954 3.95284 6.14058C3.95284 6.22912 3.95544 6.31506 3.96065 6.39839C3.96586 6.48173 3.96325 6.56766 3.95284 6.65621C3.87992 6.45829 3.77055 6.30725 3.62471 6.20308C3.47888 6.09891 3.3018 6.04683 3.09346 6.04683L2.75752 6.07808L2.92159 6.18746C2.83305 6.17704 2.7419 6.16662 2.64815 6.15621C2.5544 6.14579 2.45805 6.14319 2.35909 6.14839C2.26013 6.1536 2.17159 6.17444 2.09346 6.21089C2.01534 6.24735 1.93721 6.30204 1.85909 6.37496L1.81221 6.72652C1.81221 6.89319 1.84867 7.0286 1.92159 7.13277C1.9945 7.23694 2.12211 7.29162 2.3044 7.29683C2.46065 7.29683 2.6143 7.27339 2.76534 7.22652C2.91638 7.17964 3.06482 7.12496 3.21065 7.06246C3.16377 7.17704 3.11169 7.28641 3.0544 7.39058C2.99711 7.49475 2.95544 7.60933 2.9294 7.73433L3.03096 7.78121C3.15596 7.69787 3.27055 7.68485 3.37471 7.74214C3.47888 7.79944 3.58044 7.88277 3.6794 7.99214C3.77836 8.10152 3.87992 8.2135 3.98409 8.32808C4.08825 8.44266 4.20023 8.526 4.32002 8.57808L4.0544 8.71871L3.4294 8.36714C3.43461 8.37756 3.43982 8.401 3.44502 8.43746C3.45023 8.47391 3.44763 8.48173 3.43721 8.46089L3.15596 7.98433C2.9893 7.97912 2.81221 7.95308 2.62471 7.90621C2.43721 7.85933 2.24711 7.79683 2.0544 7.71871C1.86169 7.64058 1.682 7.55464 1.51534 7.46089C1.34867 7.36714 1.19502 7.26819 1.0544 7.16402L0.999712 7.99996C0.999712 8.63537 1.08565 9.25516 1.25752 9.85933C1.4294 10.4635 1.67159 11.0312 1.98409 11.5625C2.29659 12.0937 2.6794 12.5781 3.13252 13.0156C3.58565 13.4531 4.08825 13.8255 4.64034 14.1328C4.6143 14.0234 4.61169 13.914 4.63252 13.8046C4.65336 13.6953 4.6794 13.5859 4.71065 13.4765C4.7419 13.3671 4.77575 13.2578 4.81221 13.1484C4.84867 13.039 4.8669 12.927 4.8669 12.8125C4.8669 12.6458 4.84086 12.4713 4.78877 12.289C4.73669 12.1067 4.67419 11.9218 4.60127 11.7343C4.52836 11.5468 4.44763 11.3619 4.35909 11.1796C4.27055 10.9974 4.20023 10.8255 4.14815 10.664C4.09607 10.5026 4.0544 10.3515 4.02315 10.2109C3.9919 10.0703 4.00752 9.94787 4.07002 9.84371L3.95284 9.78902C3.98409 9.7161 4.02575 9.64579 4.07784 9.57808C4.12992 9.51037 4.18461 9.44266 4.2419 9.37496C4.29919 9.30725 4.34346 9.23433 4.37471 9.15621C4.40596 9.07808 4.42419 8.99996 4.4294 8.92183C4.4294 8.86975 4.41898 8.81506 4.39815 8.75777C4.37732 8.70048 4.35909 8.64579 4.34346 8.59371L4.50752 8.63277C4.59607 8.42964 4.71586 8.29162 4.8669 8.21871C5.01794 8.14579 5.20805 8.10673 5.43721 8.10152C5.46325 8.10152 5.51794 8.11194 5.60127 8.13277C5.68461 8.1536 5.77315 8.18225 5.8669 8.21871C5.96065 8.25516 6.04919 8.28381 6.13252 8.30464C6.21586 8.32548 6.27836 8.34631 6.32002 8.36714C6.32002 8.4036 6.34086 8.42704 6.38252 8.43746C6.42419 8.44787 6.44763 8.4661 6.45284 8.49214L6.43721 8.55464C6.45284 8.55985 6.4893 8.57808 6.54659 8.60933C6.60388 8.64058 6.66638 8.67964 6.73409 8.72652C6.8018 8.77339 6.86169 8.81506 6.91377 8.85152C6.96586 8.88798 7.00232 8.91662 7.02315 8.93746C7.1169 8.93746 7.2445 8.96871 7.40596 9.03121C7.56742 9.09371 7.7445 9.17183 7.93721 9.26558C8.12992 9.35933 8.32002 9.47131 8.50752 9.60152C8.69502 9.73173 8.87211 9.86194 9.03877 9.99214C9.20544 10.1224 9.33305 10.2526 9.42159 10.3828C9.51013 10.513 9.56221 10.6276 9.57784 10.7265L9.31221 11.0078C9.33305 11.2734 9.31482 11.4765 9.25752 11.6171C9.20023 11.7578 9.11169 11.875 8.9919 11.9687C8.87211 12.0625 8.73409 12.1406 8.57784 12.2031C8.42159 12.2656 8.25232 12.3541 8.07002 12.4687C8.07002 12.5729 8.04398 12.6849 7.9919 12.8046C7.93982 12.9244 7.87471 13.039 7.79659 13.1484C7.71846 13.2578 7.62471 13.3489 7.51534 13.4218C7.40596 13.4947 7.29659 13.5312 7.18721 13.5312L6.85909 13.2812C6.8695 13.2916 6.8695 13.3099 6.85909 13.3359C6.84867 13.3619 6.83565 13.3671 6.82002 13.3515C6.87211 13.4505 6.88513 13.5651 6.85909 13.6953C6.83305 13.8255 6.78877 13.9583 6.72627 14.0937C6.66377 14.2291 6.59346 14.3567 6.51534 14.4765C6.43721 14.5963 6.3669 14.6979 6.3044 14.7812C6.58565 14.8541 6.8669 14.9088 7.14815 14.9453C7.4294 14.9817 7.71325 15 7.99971 15Z" fill="#8A8A8A"/>
</g>
<defs>
<clipPath id="clip0_467_2600">
<rect width="16" height="16" fill="white"/>
</clipPath>
</defs>
</svg>
