<svg width="16" height="16" viewBox="0 0 16 16" fill="none" xmlns="http://www.w3.org/2000/svg">
<path d="M8.00014 1.28564C9.47777 1.28564 10.8949 1.87263 11.9397 2.91748C12.9846 3.96232 13.5716 5.37944 13.5716 6.85707C13.5716 9.21136 11.9173 11.7771 8.65157 14.5816C8.46998 14.7376 8.23846 14.8233 7.99907 14.8231C7.75968 14.8229 7.52831 14.7368 7.347 14.5805L7.131 14.3931C4.00985 11.6616 2.42871 9.15879 2.42871 6.85707C2.42871 5.37944 3.0157 3.96232 4.06054 2.91748C5.10539 1.87263 6.5225 1.28564 8.00014 1.28564ZM8.00014 4.71422C7.43182 4.71422 6.88677 4.93998 6.48491 5.34184C6.08305 5.74371 5.85728 6.28875 5.85728 6.85707C5.85728 7.42539 6.08305 7.97044 6.48491 8.3723C6.88677 8.77417 7.43182 8.99993 8.00014 8.99993C8.56846 8.99993 9.11351 8.77417 9.51537 8.3723C9.91723 7.97044 10.143 7.42539 10.143 6.85707C10.143 6.28875 9.91723 5.74371 9.51537 5.34184C9.11351 4.93998 8.56846 4.71422 8.00014 4.71422Z" fill="white"/>
</svg>
