<svg width="80" height="80" viewBox="0 0 80 80" fill="none" xmlns="http://www.w3.org/2000/svg">
<path d="M36.6663 15H18.333C17.0069 15 15.7352 15.5268 14.7975 16.4645C13.8598 17.4021 13.333 18.6739 13.333 20V55H66.6663V36.6667" stroke="url(#paint0_linear_876_1882)" stroke-width="4" stroke-linecap="round" stroke-linejoin="round"/>
<path d="M6.6665 55H73.3332V58.3333C73.3332 60.9855 72.2796 63.529 70.4042 65.4044C68.5289 67.2798 65.9853 68.3333 63.3332 68.3333H16.6665C14.0143 68.3333 11.4708 67.2798 9.59544 65.4044C7.72007 63.529 6.6665 60.9855 6.6665 58.3333V55Z" stroke="url(#paint1_linear_876_1882)" stroke-width="4" stroke-linejoin="round"/>
<path d="M54.9997 11.6665L48.333 18.3332L54.9997 24.9998M64.9997 11.6665L71.6663 18.3332L64.9997 24.9998" stroke="url(#paint2_linear_876_1882)" stroke-width="4" stroke-linecap="round" stroke-linejoin="round"/>
<defs>
<linearGradient id="paint0_linear_876_1882" x1="13.333" y1="35" x2="68.533" y2="35" gradientUnits="userSpaceOnUse">
<stop stop-color="#00ABAD"/>
<stop offset="0.921875" stop-color="#28649C"/>
</linearGradient>
<linearGradient id="paint1_linear_876_1882" x1="6.6665" y1="61.6667" x2="75.6665" y2="61.6667" gradientUnits="userSpaceOnUse">
<stop stop-color="#00ABAD"/>
<stop offset="0.921875" stop-color="#28649C"/>
</linearGradient>
<linearGradient id="paint2_linear_876_1882" x1="48.333" y1="18.3332" x2="72.483" y2="18.3332" gradientUnits="userSpaceOnUse">
<stop stop-color="#00ABAD"/>
<stop offset="0.921875" stop-color="#28649C"/>
</linearGradient>
</defs>
</svg>
