<svg width="16" height="16" viewBox="0 0 16 16" fill="none" xmlns="http://www.w3.org/2000/svg">
<path fill-rule="evenodd" clip-rule="evenodd" d="M2.3095 2.3095C1.3335 3.28683 1.3335 4.8575 1.3335 8.00016C1.3335 11.1428 1.3335 12.7142 2.3095 13.6902C3.28683 14.6668 4.8575 14.6668 8.00016 14.6668C11.1428 14.6668 12.7142 14.6668 13.6902 13.6902C14.6668 12.7148 14.6668 11.1428 14.6668 8.00016C14.6668 4.8575 14.6668 3.28616 13.6902 2.3095C12.7148 1.3335 11.1428 1.3335 8.00016 1.3335C4.8575 1.3335 3.28616 1.3335 2.3095 2.3095ZM8.99216 4.2975C9.12013 4.33187 9.22922 4.41563 9.29547 4.53038C9.36172 4.64513 9.37971 4.78149 9.3455 4.9095L7.62016 11.3495C7.60313 11.4129 7.57378 11.4724 7.53377 11.5245C7.49377 11.5765 7.4439 11.6202 7.38701 11.6531C7.27211 11.7193 7.1356 11.7372 7.0075 11.7028C6.8794 11.6684 6.7702 11.5846 6.70394 11.4697C6.63768 11.3548 6.61977 11.2183 6.65416 11.0902L8.3795 4.65083C8.39651 4.58732 8.42588 4.52779 8.46592 4.47565C8.50597 4.42351 8.55591 4.37977 8.61288 4.34695C8.66985 4.31413 8.73273 4.29287 8.79793 4.28439C8.86313 4.2759 8.92936 4.28035 8.99283 4.2975H8.99216ZM9.98016 5.64683C10.0739 5.5532 10.201 5.5006 10.3335 5.5006C10.466 5.5006 10.5931 5.5532 10.6868 5.64683L10.8262 5.7855C11.2495 6.20883 11.6028 6.56216 11.8455 6.88016C12.1015 7.21616 12.2815 7.57083 12.2815 8.00016C12.2815 8.4295 12.1015 8.78416 11.8455 9.12016C11.6028 9.43816 11.2495 9.7915 10.8255 10.2148L10.6868 10.3535C10.6411 10.4026 10.5859 10.442 10.5245 10.4693C10.4632 10.4967 10.397 10.5114 10.3298 10.5126C10.2627 10.5137 10.196 10.5014 10.1338 10.4762C10.0715 10.4511 10.0149 10.4137 9.96747 10.3662C9.91999 10.3187 9.88256 10.2622 9.85741 10.1999C9.83227 10.1376 9.81992 10.0709 9.8211 10.0038C9.82229 9.93668 9.83698 9.87047 9.86431 9.80914C9.89164 9.7478 9.93104 9.6926 9.98016 9.64683L10.0942 9.53216C10.5488 9.0775 10.8535 8.77216 11.0502 8.5135C11.2388 8.26683 11.2815 8.12283 11.2815 8.00016C11.2815 7.8775 11.2388 7.7335 11.0502 7.48683C10.8535 7.22883 10.5488 6.92283 10.0942 6.46816L9.98016 6.3535C9.88653 6.25975 9.83394 6.13266 9.83394 6.00016C9.83394 5.86766 9.88653 5.74058 9.98016 5.64683ZM5.3135 5.64683C5.40828 5.55851 5.53364 5.51043 5.66318 5.51271C5.79271 5.515 5.9163 5.56747 6.00791 5.65908C6.09952 5.75069 6.15199 5.87428 6.15428 6.00381C6.15656 6.13335 6.10848 6.25871 6.02016 6.3535L5.90616 6.46816C5.4515 6.92283 5.1475 7.22816 4.95016 7.48683C4.7615 7.7335 4.7195 7.8775 4.7195 8.00016C4.7195 8.12283 4.7615 8.26683 4.95016 8.5135C5.1475 8.7715 5.4515 9.0775 5.90616 9.53216L6.02083 9.64683C6.06856 9.69298 6.10663 9.74817 6.1328 9.80918C6.15898 9.87019 6.17274 9.93581 6.17328 10.0022C6.17383 10.0686 6.16115 10.1344 6.13598 10.1959C6.11081 10.2573 6.07366 10.3131 6.02669 10.36C5.97972 10.407 5.92388 10.4441 5.86242 10.4692C5.80096 10.4943 5.73511 10.5069 5.66872 10.5063C5.60233 10.5057 5.53673 10.4919 5.47574 10.4656C5.41475 10.4394 5.3596 10.4013 5.3135 10.3535L5.17483 10.2148C4.75083 9.7915 4.3975 9.43816 4.15483 9.12016C3.89883 8.78416 3.7195 8.4295 3.7195 8.00016C3.7195 7.57083 3.8995 7.21616 4.15483 6.88016C4.3975 6.56216 4.75083 6.20883 5.17483 5.7855L5.3135 5.64683Z" fill="#28649C"/>
</svg>
