<svg width="80" height="80" viewBox="0 0 80 80" fill="none" xmlns="http://www.w3.org/2000/svg">
<path d="M14.9998 33.3331H33.3332C35.6666 33.3276 37.9247 32.5063 39.7163 31.0114C41.508 29.5165 42.7205 27.4421 43.1439 25.1473C43.5672 22.8526 43.1747 20.4821 42.0344 18.4463C40.8941 16.4104 39.0777 14.8375 36.8998 13.9998C35.6466 11.5399 33.6606 9.52968 31.2161 8.24664C28.7716 6.9636 25.9891 6.471 23.2527 6.83683C20.5163 7.20266 17.961 8.40888 15.9394 10.289C13.9177 12.1691 12.5296 14.6304 11.9665 17.3331C10.2159 18.0769 8.77237 19.3973 7.87579 21.0748C6.97922 22.7524 6.68352 24.6862 7.03782 26.555C7.39212 28.4239 8.37509 30.1152 9.82346 31.3482C11.2718 32.5812 13.0984 33.2816 14.9998 33.3331ZM14.9998 23.3331C15.8839 23.3331 16.7317 22.9819 17.3569 22.3568C17.982 21.7317 18.3332 20.8838 18.3332 19.9998C18.3442 18.4273 18.9107 16.9094 19.9325 15.7142C20.9543 14.519 22.3658 13.7235 23.9174 13.4682C25.469 13.2129 27.0609 13.5143 28.4118 14.3191C29.7627 15.124 30.7856 16.3804 31.2998 17.8664C31.4954 18.433 31.8401 18.9364 32.2976 19.3236C32.7552 19.7107 33.3087 19.9674 33.8998 20.0664C34.6711 20.1995 35.371 20.5997 35.8769 21.1969C36.3827 21.7942 36.6622 22.5504 36.6665 23.3331C36.6665 24.2171 36.3153 25.065 35.6902 25.6901C35.0651 26.3152 34.2172 26.6664 33.3332 26.6664H14.9998C14.5578 26.6664 14.1339 26.4908 13.8213 26.1783C13.5088 25.8657 13.3332 25.4418 13.3332 24.9998C13.3332 24.5577 13.5088 24.1338 13.8213 23.8213C14.1339 23.5087 14.5578 23.3331 14.9998 23.3331ZM69.9998 53.3331H66.6665V29.9998C66.6665 27.3476 65.6129 24.8041 63.7376 22.9287C61.8622 21.0533 59.3187 19.9998 56.6665 19.9998H53.3332C52.4491 19.9998 51.6013 20.351 50.9761 20.9761C50.351 21.6012 49.9998 22.449 49.9998 23.3331C49.9998 24.2171 50.351 25.065 50.9761 25.6901C51.6013 26.3152 52.4491 26.6664 53.3332 26.6664H56.6665C57.5506 26.6664 58.3984 27.0176 59.0235 27.6427C59.6486 28.2679 59.9998 29.1157 59.9998 29.9998V53.3331H19.9998V43.3331C19.9998 42.449 19.6486 41.6012 19.0235 40.9761C18.3984 40.351 17.5506 39.9998 16.6665 39.9998C15.7824 39.9998 14.9346 40.351 14.3095 40.9761C13.6844 41.6012 13.3332 42.449 13.3332 43.3331V53.3331H9.99984C9.11578 53.3331 8.26794 53.6843 7.64281 54.3094C7.01769 54.9345 6.6665 55.7824 6.6665 56.6664V63.3331C6.6665 65.9853 7.72007 68.5288 9.59544 70.4042C11.4708 72.2795 14.0143 73.3331 16.6665 73.3331H63.3332C65.9853 73.3331 68.5289 72.2795 70.4042 70.4042C72.2796 68.5288 73.3332 65.9853 73.3332 63.3331V56.6664C73.3332 55.7824 72.982 54.9345 72.3569 54.3094C71.7317 53.6843 70.8839 53.3331 69.9998 53.3331ZM66.6665 63.3331C66.6665 64.2172 66.3153 65.065 65.6902 65.6901C65.0651 66.3152 64.2172 66.6664 63.3332 66.6664H16.6665C15.7824 66.6664 14.9346 66.3152 14.3095 65.6901C13.6844 65.065 13.3332 64.2172 13.3332 63.3331V59.9998H66.6665V63.3331Z" fill="url(#paint0_linear_876_1446)"/>
<defs>
<linearGradient id="paint0_linear_876_1446" x1="6.6665" y1="40.0262" x2="75.6665" y2="40.0262" gradientUnits="userSpaceOnUse">
<stop stop-color="#00ABAD"/>
<stop offset="0.921875" stop-color="#28649C"/>
</linearGradient>
</defs>
</svg>
