<svg width="80" height="80" viewBox="0 0 80 80" fill="none" xmlns="http://www.w3.org/2000/svg">
<path d="M23.3333 53.3332C24.6594 53.3332 25.9312 52.8064 26.8689 51.8687C27.8066 50.931 28.3333 49.6593 28.3333 48.3332C28.3496 48.1669 28.3496 47.9994 28.3333 47.8332L37.6333 38.5332H39.1667L44.5333 43.8998V44.1665C44.5333 45.4926 45.0601 46.7644 45.9978 47.702C46.9355 48.6397 48.2073 49.1665 49.5333 49.1665C50.8594 49.1665 52.1312 48.6397 53.0689 47.702C54.0065 46.7644 54.5333 45.4926 54.5333 44.1665V43.8998L66.6667 31.6665C67.6556 31.6665 68.6223 31.3733 69.4445 30.8239C70.2668 30.2744 70.9076 29.4936 71.2861 28.5799C71.6645 27.6663 71.7635 26.661 71.5706 25.6911C71.3777 24.7211 70.9015 23.8302 70.2022 23.131C69.5029 22.4317 68.612 21.9555 67.6421 21.7626C66.6722 21.5697 65.6669 21.6687 64.7533 22.0471C63.8396 22.4255 63.0587 23.0664 62.5093 23.8887C61.9599 24.7109 61.6667 25.6776 61.6667 26.6665C61.6504 26.8328 61.6504 27.0002 61.6667 27.1665L49.6333 39.1998H49.1L43.3333 33.3332C43.3333 32.0071 42.8066 30.7353 41.8689 29.7976C40.9312 28.86 39.6594 28.3332 38.3333 28.3332C37.0073 28.3332 35.7355 28.86 34.7978 29.7976C33.8601 30.7353 33.3333 32.0071 33.3333 33.3332L23.3333 43.3332C22.0073 43.3332 20.7355 43.86 19.7978 44.7976C18.8601 45.7353 18.3333 47.0071 18.3333 48.3332C18.3333 49.6593 18.8601 50.931 19.7978 51.8687C20.7355 52.8064 22.0073 53.3332 23.3333 53.3332ZM68.3333 66.6665H11.6667V9.99984C11.6667 9.11578 11.3155 8.26794 10.6904 7.64281C10.0652 7.01769 9.21739 6.6665 8.33333 6.6665C7.44928 6.6665 6.60143 7.01769 5.97631 7.64281C5.35119 8.26794 5 9.11578 5 9.99984V69.9998C5 70.8839 5.35119 71.7317 5.97631 72.3569C6.60143 72.982 7.44928 73.3332 8.33333 73.3332H68.3333C69.2174 73.3332 70.0652 72.982 70.6904 72.3569C71.3155 71.7317 71.6667 70.8839 71.6667 69.9998C71.6667 69.1158 71.3155 68.2679 70.6904 67.6428C70.0652 67.0177 69.2174 66.6665 68.3333 66.6665Z" fill="url(#paint0_linear_691_826)"/>
<defs>
<linearGradient id="paint0_linear_691_826" x1="5" y1="39.9998" x2="74" y2="39.9998" gradientUnits="userSpaceOnUse">
<stop stop-color="#00ABAD"/>
<stop offset="0.921875" stop-color="#28649C"/>
</linearGradient>
</defs>
</svg>
